# xmcd CD database file
#
# Track frame offsets:
#	150
#	7800
#	22145
#	35740
#	49940
#	63000
#	70370
#	75622
#	86200
#	107720
#	120040
#	129695
#	144615
#	157795
#	171942
#	203842
#	207285
#	213800
#	225740
#	236120
#	241880
#	256915
#	274332
#
# Disc length: 3729 seconds
#
# Revision: 3
# Processed by: cddbd v1.5.2PL0 Copyright (c) Steve Scherf et al.
# Submitted via: CDex 1.51
#
DISCID=400e8f17
DTITLE=Nicolas de Grigny - Livre d'orgue (John Grew, Orgues de l'Université McGill à Montréal)
DYEAR=1998
DGENRE=Grandes Orgues
TTITLE0=I. Kyrie - 1er Kyrie en taille 5  ...............................  [CD 1 - MESSE - 1997]
TTITLE1=I. Kyrie - Fugue à 5, qui renferme le chant du Kyrie
TTITLE2=I. Kyrie - Cromorne en taille à 2 parties
TTITLE3=I. Kyrie - Trio en dialogue
TTITLE4=I. Kyrie - Dialogue sur les Grands Jeux
TTITLE5=II. Gloria - Et in terra pax, à 5
TTITLE6=II. Gloria - Fugue
TTITLE7=II. Gloria - Duo
TTITLE8=II. Gloria - Récit de tierce en taille
TTITLE9=II. Gloria - Basse de Trompette ou de Cromorne
TTITLE10=II. Gloria - Dialogue
TTITLE11=II. Gloria - Fugue à 5
TTITLE12=II. Gloria - Trio
TTITLE13=II. Gloria - Dialogue
TTITLE14=III. Offertoire - Offertoire sur les Grands Jeux
TTITLE15=IV. Sanctus - Premier Sanctus en taille à 5
TTITLE16=IV. Sanctus - Fugue
TTITLE17=IV. Sanctus - Récit de tierce pour le Benedictus
TTITLE18=IV. Sanctus - Dialogue de Flûtes pour l'Elèvation
TTITLE19=V. Agnus Dei - Premier Agnus
TTITLE20=V. Agnus Dei - Dialogue
TTITLE21=V. Agnus Dei - Dialogue à 2 Tailles de Cromorn et 2 dessus de Cornet pour la Communion
TTITLE22=V. Agnus Dei - Plein Jeu
EXTD=
EXTT0=
EXTT1=
EXTT2=
EXTT3=
EXTT4=
EXTT5=
EXTT6=
EXTT7=
EXTT8=
EXTT9=
EXTT10=
EXTT11=
EXTT12=
EXTT13=
EXTT14=
EXTT15=
EXTT16=
EXTT17=
EXTT18=
EXTT19=
EXTT20=
EXTT21=
EXTT22=
PLAYORDER=
